<svg xmlns="http://www.w3.org/2000/svg" xmlns:xlink="http://www.w3.org/1999/xlink" width="500" zoomAndPan="magnify" viewBox="0 0 375 112.499997" height="150" preserveAspectRatio="xMidYMid meet" version="1.0"><defs><g/><clipPath id="def55341d6"><path d="M 7.109375 10.5 L 98.203125 10.5 L 98.203125 101.59375 L 7.109375 101.59375 Z M 7.109375 10.5 " clip-rule="nonzero"/></clipPath></defs><g clip-path="url(#def55341d6)"><path fill="#407bff" d="M 64.699219 10.5 L 40.519531 10.5 C 39.425781 10.5 38.335938 10.554688 37.246094 10.660156 C 36.15625 10.765625 35.074219 10.925781 34 11.140625 C 32.929688 11.355469 31.867188 11.621094 30.820312 11.9375 C 29.773438 12.253906 28.746094 12.625 27.734375 13.042969 C 26.722656 13.460938 25.734375 13.929688 24.769531 14.445312 C 23.804688 14.960938 22.867188 15.523438 21.957031 16.128906 C 21.046875 16.738281 20.171875 17.390625 19.324219 18.082031 C 18.480469 18.777344 17.667969 19.511719 16.894531 20.285156 C 16.121094 21.058594 15.386719 21.867188 14.691406 22.714844 C 14 23.558594 13.347656 24.4375 12.738281 25.347656 C 12.132812 26.257812 11.570312 27.195312 11.054688 28.160156 C 10.539062 29.125 10.070312 30.113281 9.652344 31.125 C 9.234375 32.136719 8.867188 33.164062 8.546875 34.210938 C 8.230469 35.257812 7.964844 36.320312 7.75 37.390625 C 7.539062 38.464844 7.378906 39.546875 7.269531 40.636719 C 7.164062 41.722656 7.109375 42.816406 7.109375 43.910156 L 7.109375 68.089844 C 7.109375 69.183594 7.164062 70.277344 7.269531 71.363281 C 7.378906 72.453125 7.539062 73.535156 7.75 74.609375 C 7.964844 75.679688 8.230469 76.742188 8.546875 77.789062 C 8.867188 78.835938 9.234375 79.863281 9.652344 80.875 C 10.070312 81.886719 10.539062 82.875 11.054688 83.839844 C 11.570312 84.804688 12.132812 85.742188 12.738281 86.652344 C 13.347656 87.5625 14 88.441406 14.691406 89.285156 C 15.386719 90.132812 16.121094 90.941406 16.894531 91.714844 C 17.667969 92.488281 18.480469 93.222656 19.324219 93.917969 C 20.171875 94.609375 21.046875 95.261719 21.957031 95.871094 C 22.867188 96.476562 23.804688 97.039062 24.769531 97.554688 C 25.734375 98.070312 26.722656 98.539062 27.734375 98.957031 C 28.746094 99.375 29.773438 99.746094 30.820312 100.0625 C 31.867188 100.378906 32.929688 100.644531 34 100.859375 C 35.074219 101.074219 36.15625 101.234375 37.246094 101.339844 C 38.335938 101.449219 39.425781 101.5 40.519531 101.5 L 64.699219 101.5 C 65.792969 101.5 66.886719 101.449219 67.976562 101.339844 C 69.0625 101.234375 70.144531 101.074219 71.21875 100.859375 C 72.292969 100.644531 73.351562 100.378906 74.398438 100.0625 C 75.445312 99.746094 76.476562 99.375 77.484375 98.957031 C 78.496094 98.539062 79.484375 98.070312 80.449219 97.554688 C 81.414062 97.039062 82.351562 96.476562 83.261719 95.871094 C 84.171875 95.261719 85.050781 94.609375 85.894531 93.917969 C 86.742188 93.222656 87.550781 92.488281 88.324219 91.714844 C 89.097656 90.941406 89.832031 90.132812 90.527344 89.285156 C 91.222656 88.441406 91.871094 87.5625 92.480469 86.652344 C 93.089844 85.742188 93.648438 84.804688 94.167969 83.839844 C 94.683594 82.875 95.148438 81.886719 95.566406 80.875 C 95.988281 79.863281 96.355469 78.835938 96.671875 77.789062 C 96.988281 76.742188 97.253906 75.679688 97.46875 74.609375 C 97.683594 73.535156 97.84375 72.453125 97.949219 71.363281 C 98.058594 70.277344 98.109375 69.183594 98.109375 68.089844 L 98.109375 43.910156 C 98.109375 42.816406 98.058594 41.722656 97.949219 40.636719 C 97.84375 39.546875 97.683594 38.464844 97.46875 37.390625 C 97.253906 36.320312 96.988281 35.257812 96.671875 34.210938 C 96.355469 33.164062 95.988281 32.136719 95.566406 31.125 C 95.148438 30.113281 94.683594 29.125 94.167969 28.160156 C 93.648438 27.195312 93.089844 26.257812 92.480469 25.347656 C 91.871094 24.4375 91.222656 23.558594 90.527344 22.714844 C 89.832031 21.867188 89.097656 21.058594 88.324219 20.285156 C 87.550781 19.511719 86.742188 18.777344 85.894531 18.082031 C 85.050781 17.390625 84.171875 16.738281 83.261719 16.128906 C 82.351562 15.523438 81.414062 14.960938 80.449219 14.445312 C 79.484375 13.929688 78.496094 13.460938 77.484375 13.042969 C 76.476562 12.625 75.445312 12.253906 74.398438 11.9375 C 73.351562 11.621094 72.292969 11.355469 71.21875 11.140625 C 70.144531 10.925781 69.0625 10.765625 67.976562 10.660156 C 66.886719 10.554688 65.792969 10.5 64.699219 10.5 Z M 51.457031 82 C 43.574219 81.578125 29.859375 74.949219 29.859375 58.582031 L 29.859375 34.875 C 29.859375 34.554688 29.890625 34.238281 29.953125 33.921875 C 30.015625 33.609375 30.109375 33.304688 30.230469 33.007812 C 30.351562 32.714844 30.503906 32.433594 30.679688 32.167969 C 30.859375 31.898438 31.0625 31.652344 31.289062 31.425781 C 31.515625 31.199219 31.761719 31 32.027344 30.820312 C 32.292969 30.644531 32.574219 30.492188 32.871094 30.371094 C 33.164062 30.25 33.46875 30.15625 33.785156 30.09375 C 34.097656 30.03125 34.414062 30 34.734375 30 L 37.984375 30 C 38.304688 30 38.621094 30.03125 38.9375 30.09375 C 39.25 30.15625 39.554688 30.25 39.851562 30.371094 C 40.144531 30.492188 40.425781 30.644531 40.695312 30.820312 C 40.960938 31 41.207031 31.199219 41.433594 31.425781 C 41.660156 31.652344 41.859375 31.898438 42.039062 32.167969 C 42.214844 32.433594 42.367188 32.714844 42.488281 33.007812 C 42.613281 33.304688 42.703125 33.609375 42.765625 33.921875 C 42.828125 34.238281 42.859375 34.554688 42.859375 34.875 L 42.859375 58.910156 C 42.851562 59.507812 42.894531 60.101562 42.992188 60.691406 C 43.089844 61.277344 43.242188 61.855469 43.441406 62.417969 C 43.644531 62.980469 43.894531 63.519531 44.191406 64.039062 C 44.492188 64.554688 44.832031 65.042969 45.21875 65.5 C 45.605469 65.957031 46.027344 66.375 46.488281 66.753906 C 46.949219 67.132812 47.441406 67.46875 47.960938 67.761719 C 48.484375 68.054688 49.027344 68.296875 49.59375 68.492188 C 50.15625 68.6875 50.734375 68.828125 51.328125 68.917969 C 51.929688 69 52.539062 69.027344 53.148438 68.992188 C 53.757812 68.960938 54.355469 68.871094 54.949219 68.726562 C 55.542969 68.582031 56.117188 68.382812 56.671875 68.132812 C 57.226562 67.878906 57.753906 67.578125 58.253906 67.226562 C 58.75 66.875 59.210938 66.476562 59.636719 66.039062 C 60.0625 65.601562 60.441406 65.128906 60.777344 64.617188 C 61.113281 64.109375 61.398438 63.574219 61.632812 63.007812 C 61.867188 62.445312 62.046875 61.867188 62.171875 61.269531 C 62.300781 60.671875 62.367188 60.070312 62.382812 59.457031 C 62.394531 58.847656 62.351562 58.242188 62.25 57.640625 C 62.148438 57.039062 61.992188 56.453125 61.78125 55.878906 C 61.570312 55.308594 61.304688 54.761719 60.992188 54.238281 C 60.679688 53.714844 60.316406 53.226562 59.914062 52.769531 C 59.507812 52.3125 59.0625 51.898438 58.578125 51.527344 C 58.09375 51.15625 57.582031 50.832031 57.035156 50.558594 C 56.492188 50.28125 55.925781 50.058594 55.339844 49.890625 C 54.953125 49.785156 54.59375 49.621094 54.257812 49.402344 C 53.921875 49.179688 53.632812 48.910156 53.386719 48.59375 C 53.140625 48.277344 52.949219 47.929688 52.816406 47.550781 C 52.683594 47.171875 52.617188 46.78125 52.609375 46.378906 L 52.609375 40.496094 C 52.609375 40.230469 52.636719 39.96875 52.691406 39.710938 C 52.746094 39.453125 52.832031 39.203125 52.941406 38.960938 C 53.050781 38.722656 53.1875 38.496094 53.347656 38.285156 C 53.507812 38.074219 53.691406 37.882812 53.890625 37.710938 C 54.09375 37.539062 54.3125 37.394531 54.546875 37.269531 C 54.78125 37.144531 55.027344 37.050781 55.28125 36.980469 C 55.539062 36.910156 55.796875 36.871094 56.0625 36.855469 C 56.328125 36.84375 56.589844 36.859375 56.851562 36.90625 C 57.554688 37.035156 58.253906 37.195312 58.941406 37.390625 C 59.632812 37.582031 60.308594 37.808594 60.976562 38.066406 C 61.644531 38.324219 62.300781 38.613281 62.941406 38.933594 C 63.582031 39.253906 64.207031 39.605469 64.8125 39.984375 C 65.421875 40.363281 66.011719 40.769531 66.578125 41.203125 C 67.148438 41.636719 67.695312 42.097656 68.222656 42.585938 C 68.746094 43.070312 69.25 43.582031 69.726562 44.113281 C 70.203125 44.648438 70.65625 45.203125 71.082031 45.777344 C 71.507812 46.355469 71.902344 46.949219 72.273438 47.5625 C 72.640625 48.175781 72.980469 48.804688 73.289062 49.453125 C 73.601562 50.097656 73.878906 50.757812 74.125 51.429688 C 74.375 52.101562 74.589844 52.785156 74.773438 53.476562 C 74.953125 54.167969 75.105469 54.867188 75.222656 55.574219 C 75.339844 56.28125 75.421875 56.992188 75.472656 57.707031 C 75.523438 58.417969 75.539062 59.132812 75.519531 59.851562 C 75.503906 60.566406 75.449219 61.28125 75.367188 61.992188 C 75.28125 62.703125 75.164062 63.40625 75.011719 64.109375 C 74.859375 64.808594 74.675781 65.5 74.457031 66.179688 C 74.242188 66.863281 73.992188 67.535156 73.710938 68.191406 C 73.433594 68.851562 73.121094 69.496094 72.78125 70.125 C 72.4375 70.753906 72.070312 71.367188 71.667969 71.960938 C 71.269531 72.558594 70.84375 73.132812 70.390625 73.6875 C 69.9375 74.242188 69.460938 74.773438 68.957031 75.28125 C 68.453125 75.792969 67.925781 76.277344 67.378906 76.734375 C 66.828125 77.195312 66.257812 77.628906 65.667969 78.035156 C 65.078125 78.4375 64.472656 78.816406 63.84375 79.164062 C 63.21875 79.511719 62.578125 79.832031 61.921875 80.121094 C 61.265625 80.40625 60.601562 80.664062 59.917969 80.886719 C 59.238281 81.113281 58.550781 81.304688 57.851562 81.464844 C 57.15625 81.625 56.449219 81.75 55.742188 81.84375 C 55.03125 81.9375 54.316406 81.996094 53.601562 82.023438 C 52.886719 82.050781 52.171875 82.042969 51.457031 82 Z M 51.457031 82 " fill-opacity="1" fill-rule="nonzero"/></g><g fill="#407bff" fill-opacity="1"><g transform="translate(112.52941, 76.755287)"><g><path d="M 29.953125 -22.140625 C 32.453125 -21.609375 34.457031 -20.367188 35.96875 -18.421875 C 37.488281 -16.472656 38.25 -14.25 38.25 -11.75 C 38.25 -8.132812 36.988281 -5.269531 34.46875 -3.15625 C 31.945312 -1.050781 28.429688 0 23.921875 0 L 3.8125 0 L 3.8125 -43.171875 L 23.25 -43.171875 C 27.632812 -43.171875 31.066406 -42.164062 33.546875 -40.15625 C 36.023438 -38.144531 37.265625 -35.421875 37.265625 -31.984375 C 37.265625 -29.441406 36.597656 -27.328125 35.265625 -25.640625 C 33.929688 -23.960938 32.160156 -22.796875 29.953125 -22.140625 Z M 14.328125 -25.703125 L 21.21875 -25.703125 C 22.9375 -25.703125 24.253906 -26.082031 25.171875 -26.84375 C 26.097656 -27.601562 26.5625 -28.722656 26.5625 -30.203125 C 26.5625 -31.671875 26.097656 -32.796875 25.171875 -33.578125 C 24.253906 -34.359375 22.9375 -34.75 21.21875 -34.75 L 14.328125 -34.75 Z M 22.078125 -8.484375 C 23.835938 -8.484375 25.195312 -8.882812 26.15625 -9.6875 C 27.125 -10.488281 27.609375 -11.644531 27.609375 -13.15625 C 27.609375 -14.675781 27.101562 -15.863281 26.09375 -16.71875 C 25.09375 -17.582031 23.710938 -18.015625 21.953125 -18.015625 L 14.328125 -18.015625 L 14.328125 -8.484375 Z M 22.078125 -8.484375 "/></g></g></g><g fill="#407bff" fill-opacity="1"><g transform="translate(153.054634, 76.755287)"><g><path d="M 19.4375 0.484375 C 16.070312 0.484375 13.046875 -0.226562 10.359375 -1.65625 C 7.671875 -3.09375 5.554688 -5.144531 4.015625 -7.8125 C 2.484375 -10.476562 1.71875 -13.59375 1.71875 -17.15625 C 1.71875 -20.6875 2.492188 -23.789062 4.046875 -26.46875 C 5.609375 -29.15625 7.742188 -31.21875 10.453125 -32.65625 C 13.160156 -34.09375 16.195312 -34.8125 19.5625 -34.8125 C 22.914062 -34.8125 25.945312 -34.09375 28.65625 -32.65625 C 31.363281 -31.21875 33.492188 -29.15625 35.046875 -26.46875 C 36.609375 -23.789062 37.390625 -20.6875 37.390625 -17.15625 C 37.390625 -13.632812 36.597656 -10.53125 35.015625 -7.84375 C 33.441406 -5.15625 31.289062 -3.09375 28.5625 -1.65625 C 25.84375 -0.226562 22.800781 0.484375 19.4375 0.484375 Z M 19.4375 -8.609375 C 21.445312 -8.609375 23.15625 -9.34375 24.5625 -10.8125 C 25.976562 -12.289062 26.6875 -14.40625 26.6875 -17.15625 C 26.6875 -19.90625 26 -22.015625 24.625 -23.484375 C 23.257812 -24.960938 21.570312 -25.703125 19.5625 -25.703125 C 17.507812 -25.703125 15.804688 -24.972656 14.453125 -23.515625 C 13.097656 -22.066406 12.421875 -19.945312 12.421875 -17.15625 C 12.421875 -14.40625 13.085938 -12.289062 14.421875 -10.8125 C 15.753906 -9.34375 17.425781 -8.609375 19.4375 -8.609375 Z M 19.4375 -8.609375 "/></g></g></g><g fill="#407bff" fill-opacity="1"><g transform="translate(192.226975, 76.755287)"><g><path d="M 19.4375 0.484375 C 16.070312 0.484375 13.046875 -0.226562 10.359375 -1.65625 C 7.671875 -3.09375 5.554688 -5.144531 4.015625 -7.8125 C 2.484375 -10.476562 1.71875 -13.59375 1.71875 -17.15625 C 1.71875 -20.6875 2.492188 -23.789062 4.046875 -26.46875 C 5.609375 -29.15625 7.742188 -31.21875 10.453125 -32.65625 C 13.160156 -34.09375 16.195312 -34.8125 19.5625 -34.8125 C 22.914062 -34.8125 25.945312 -34.09375 28.65625 -32.65625 C 31.363281 -31.21875 33.492188 -29.15625 35.046875 -26.46875 C 36.609375 -23.789062 37.390625 -20.6875 37.390625 -17.15625 C 37.390625 -13.632812 36.597656 -10.53125 35.015625 -7.84375 C 33.441406 -5.15625 31.289062 -3.09375 28.5625 -1.65625 C 25.84375 -0.226562 22.800781 0.484375 19.4375 0.484375 Z M 19.4375 -8.609375 C 21.445312 -8.609375 23.15625 -9.34375 24.5625 -10.8125 C 25.976562 -12.289062 26.6875 -14.40625 26.6875 -17.15625 C 26.6875 -19.90625 26 -22.015625 24.625 -23.484375 C 23.257812 -24.960938 21.570312 -25.703125 19.5625 -25.703125 C 17.507812 -25.703125 15.804688 -24.972656 14.453125 -23.515625 C 13.097656 -22.066406 12.421875 -19.945312 12.421875 -17.15625 C 12.421875 -14.40625 13.085938 -12.289062 14.421875 -10.8125 C 15.753906 -9.34375 17.425781 -8.609375 19.4375 -8.609375 Z M 19.4375 -8.609375 "/></g></g></g><g fill="#407bff" fill-opacity="1"><g transform="translate(231.399315, 76.755287)"><g><path d="M 24.78125 0 L 14.328125 -14.390625 L 14.328125 0 L 3.8125 0 L 3.8125 -45.515625 L 14.328125 -45.515625 L 14.328125 -20.359375 L 24.71875 -34.3125 L 37.703125 -34.3125 L 23.4375 -17.09375 L 37.828125 0 Z M 24.78125 0 "/></g></g></g><g fill="#407bff" fill-opacity="1"><g transform="translate(269.403243, 76.755287)"><g><path d="M 52.703125 -43.171875 L 52.703125 0 L 42.1875 0 L 42.1875 -25.890625 L 32.53125 0 L 24.046875 0 L 14.328125 -25.953125 L 14.328125 0 L 3.8125 0 L 3.8125 -43.171875 L 16.234375 -43.171875 L 28.34375 -13.28125 L 40.34375 -43.171875 Z M 52.703125 -43.171875 "/></g></g></g><g fill="#407bff" fill-opacity="1"><g transform="translate(325.855692, 76.755287)"><g><path d="M 36.15625 -17.71875 C 36.15625 -16.726562 36.097656 -15.703125 35.984375 -14.640625 L 12.171875 -14.640625 C 12.335938 -12.503906 13.023438 -10.875 14.234375 -9.75 C 15.441406 -8.625 16.929688 -8.0625 18.703125 -8.0625 C 21.316406 -8.0625 23.140625 -9.164062 24.171875 -11.375 L 35.359375 -11.375 C 34.785156 -9.125 33.75 -7.09375 32.25 -5.28125 C 30.757812 -3.476562 28.882812 -2.066406 26.625 -1.046875 C 24.375 -0.0234375 21.851562 0.484375 19.0625 0.484375 C 15.695312 0.484375 12.703125 -0.226562 10.078125 -1.65625 C 7.460938 -3.09375 5.414062 -5.144531 3.9375 -7.8125 C 2.457031 -10.476562 1.71875 -13.59375 1.71875 -17.15625 C 1.71875 -20.726562 2.445312 -23.84375 3.90625 -26.5 C 5.363281 -29.164062 7.398438 -31.21875 10.015625 -32.65625 C 12.640625 -34.09375 15.65625 -34.8125 19.0625 -34.8125 C 22.382812 -34.8125 25.335938 -34.113281 27.921875 -32.71875 C 30.503906 -31.320312 32.519531 -29.332031 33.96875 -26.75 C 35.425781 -24.164062 36.15625 -21.15625 36.15625 -17.71875 Z M 25.40625 -20.484375 C 25.40625 -22.285156 24.785156 -23.71875 23.546875 -24.78125 C 22.316406 -25.851562 20.78125 -26.390625 18.9375 -26.390625 C 17.175781 -26.390625 15.691406 -25.875 14.484375 -24.84375 C 13.273438 -23.820312 12.523438 -22.367188 12.234375 -20.484375 Z M 25.40625 -20.484375 "/></g></g></g></svg>